<svg width="900" height="620" viewBox="0 0 900 620" fill="none" xmlns="http://www.w3.org/2000/svg">
  <rect width="900" height="620" rx="36" fill="#102236"/>
  <rect x="48" y="48" width="804" height="524" rx="28" fill="#183550"/>
  <rect x="92" y="92" width="218" height="146" rx="22" fill="#FFF8EE"/>
  <rect x="340" y="92" width="470" height="146" rx="22" fill="#FFF8EE"/>
  <rect x="92" y="270" width="266" height="250" rx="24" fill="#16756F" fill-opacity="0.22" stroke="#7FB7B1"/>
  <rect x="386" y="270" width="424" height="106" rx="22" fill="#FFF8EE"/>
  <rect x="386" y="414" width="424" height="106" rx="22" fill="#D9683B" fill-opacity="0.16" stroke="#E7A085"/>
  <circle cx="168" cy="166" r="34" fill="#E4B548" fill-opacity="0.24"/>
  <circle cx="742" cy="136" r="54" fill="#16756F" fill-opacity="0.18"/>
  <circle cx="232" cy="436" r="64" fill="#E4B548" fill-opacity="0.16"/>
  <rect x="136" y="128" width="134" height="12" rx="6" fill="#102236"/>
  <rect x="136" y="152" width="112" height="12" rx="6" fill="#5F6C7A"/>
  <rect x="136" y="176" width="92" height="12" rx="6" fill="#5F6C7A"/>
  <rect x="372" y="126" width="132" height="12" rx="6" fill="#102236"/>
  <rect x="372" y="152" width="282" height="12" rx="6" fill="#5F6C7A"/>
  <rect x="372" y="178" width="198" height="12" rx="6" fill="#5F6C7A"/>
  <rect x="126" y="308" width="96" height="12" rx="6" fill="#FFF8EE"/>
  <rect x="126" y="336" width="176" height="12" rx="6" fill="#D8F3EE"/>
  <rect x="126" y="364" width="148" height="12" rx="6" fill="#D8F3EE"/>
  <rect x="126" y="408" width="198" height="82" rx="18" fill="#FFF8EE"/>
  <rect x="414" y="304" width="116" height="12" rx="6" fill="#102236"/>
  <rect x="414" y="330" width="246" height="12" rx="6" fill="#5F6C7A"/>
  <rect x="414" y="448" width="132" height="12" rx="6" fill="#102236"/>
  <rect x="414" y="474" width="226" height="12" rx="6" fill="#5F6C7A"/>
  <path d="M310 165H340" stroke="#E4B548" stroke-width="6" stroke-linecap="round"/>
  <path d="M358 395H386" stroke="#D9683B" stroke-width="6" stroke-linecap="round"/>
  <circle cx="310" cy="165" r="11" fill="#E4B548"/>
  <circle cx="340" cy="165" r="11" fill="#E4B548"/>
  <circle cx="358" cy="395" r="11" fill="#D9683B"/>
  <circle cx="386" cy="395" r="11" fill="#D9683B"/>
</svg>
